<?xml version="1.0" standalone="no"?>
<!DOCTYPE svg PUBLIC "-//W3C//DTD SVG 20010904//EN"
 "http://www.w3.org/TR/2001/REC-SVG-20010904/DTD/svg10.dtd">
<svg version="1.0" xmlns="http://www.w3.org/2000/svg"
 width="260.000000pt" height="260.000000pt" viewBox="0 0 260.000000 260.000000"
 preserveAspectRatio="xMidYMid meet">
<metadata>
Created by potrace 1.14, written by Peter Selinger 2001-2017
</metadata>
<g transform="translate(0.000000,260.000000) scale(0.100000,-0.100000)"
fill="#000000" stroke="none">
<path d="M986 2421 c-14 -21 -93 -52 -144 -56 -26 -2 -104 -4 -174 -4 l-128
-1 0 -25 0 -25 104 0 104 0 0 -1010 c0 -641 -4 -1012 -10 -1016 -5 -3 -52 -6
-104 -6 -93 1 -94 1 -94 -24 l0 -24 230 0 230 0 0 107 0 108 34 -50 c98 -144
227 -208 400 -200 208 10 371 108 481 291 169 280 122 639 -114 874 -77 77
-183 141 -256 155 -221 44 -390 -31 -505 -223 l-40 -67 -2 605 c-2 353 -7 599
-12 591z m569 -966 c93 -42 141 -137 163 -320 15 -126 7 -566 -12 -660 -11
-55 -50 -134 -78 -162 -57 -55 -114 -73 -225 -70 -83 2 -107 6 -157 30 -116
54 -183 128 -222 245 -21 61 -23 84 -23 312 1 180 4 260 15 300 46 179 197
328 349 346 28 4 51 7 53 9 6 5 109 -17 137 -30z"/>
</g>
</svg>
